<svg t="1660832850254" class="icon" viewBox="0 0 1024 1024" version="1.1" xmlns="http://www.w3.org/2000/svg" p-id="9844" width="16" height="16">
    <path d="M64 832l0.16 6.4a128 128 0 0 0 121.248 121.44L192 960h512l-6.4-0.16a128 128 0 0 1-121.44-121.248L576 832H64z m256-768a128 128 0 0 0-127.84 121.6L192 192v576h416l3.744 0.224a32 32 0 0 1 28.032 28.032L640 800v32l0.16 4.8a64 64 0 0 0 127.104 4.896l0.576-4.928L768 832V192a128 128 0 0 1 121.6-127.84L896 64H320z m265.376 137.376a32 32 0 0 1 47.904 42.24l-2.656 3.008L557.248 320H608a32 32 0 0 1 3.744 63.776L608 384h-96v64h96a32 32 0 0 1 3.744 63.776L608 512h-96v96a32 32 0 0 1-63.776 3.744L448 608v-96h-96a32 32 0 0 1-3.744-63.776L352 448h96v-64h-96a32 32 0 0 1-3.744-63.776L352 320h50.688L329.28 246.624a32 32 0 0 1 42.24-47.904l3.008 2.656L480 306.752l105.408-105.376zM896 128a64 64 0 0 0-63.84 59.2L832 192v192h96a32 32 0 0 0 31.776-28.256L960 352V192a64 64 0 0 0-64-64z" fill="#B19C4A" p-id="9845"></path>
</svg>