<svg t="1660832169584" class="icon" viewBox="0 0 1132 1024" version="1.1" xmlns="http://www.w3.org/2000/svg" p-id="7551" width="16" height="16"><path d="M889.768169 539.471445H108.133537v-53.915133H889.768169v-53.915132H101.394146a47.175741 47.175741 0 0 0-47.175741 47.175741v67.393915a47.175741 47.175741 0 0 0 47.175741 47.175741H889.768169z" fill="#333333" p-id="7552"></path><path d="M26.957566 134.855225l107.847113 0 0 754.491732-107.847113 0 0-754.491732Z" fill="#FF505E" p-id="7553"></path><path d="M114.569656 916.304523H47.175741a47.175741 47.175741 0 0 1-47.175741-47.175741V155.006006a47.175741 47.175741 0 0 1 47.175741-47.175741h67.393915a47.175741 47.175741 0 0 1 47.175741 47.175741v714.122776a47.175741 47.175741 0 0 1-47.175741 47.175741z m-60.654524-53.915132h53.915133V161.745397H53.915132z" fill="#333333" p-id="7554"></path><path d="M134.804679 26.957566l107.847114 0 0 970.084868-107.847114 0 0-970.084868Z" fill="#FF505E" p-id="7555"></path><path d="M222.399921 1024H155.006006a47.175741 47.175741 0 0 1-47.175741-47.175741V47.175741A47.175741 47.175741 0 0 1 155.006006 0h67.393915a47.175741 47.175741 0 0 1 47.175741 47.175741v929.648518a47.175741 47.175741 0 0 1-47.175741 47.175741z m-60.654524-53.915132h53.915132V53.915132H161.745397zM1085.244221 916.304523h-67.393916a47.175741 47.175741 0 0 1-47.175741-47.175741V155.006006a47.175741 47.175741 0 0 1 47.175741-47.175741h67.393916a47.175741 47.175741 0 0 1 47.17574 47.175741v714.122776a47.175741 47.175741 0 0 1-47.17574 47.175741z m-60.654524-53.915132h53.915132V161.745397h-53.915132z" fill="#333333" p-id="7556"></path><path d="M977.397107 1024h-67.393915a47.175741 47.175741 0 0 1-47.175741-47.175741V47.175741a47.175741 47.175741 0 0 1 47.175741-47.175741h67.393915a47.175741 47.175741 0 0 1 47.175741 47.175741v929.648518a47.175741 47.175741 0 0 1-47.175741 47.175741z m-60.654523-53.915132h53.915132V53.915132h-53.915132z" fill="#333333" p-id="7557"></path></svg>