<svg t="1660831896829" class="icon" viewBox="0 0 1024 1024" version="1.1" xmlns="http://www.w3.org/2000/svg" p-id="2228" width="16" height="16"><path d="M838.3 247.6H725.1c0.1-1.5 0.5-2.9 0.5-4.4 0-58.2-49.1-105.9-109.1-105.9H474c-60 0-109.1 47.7-109.1 105.9 0 1.5 0.4 2.9 0.5 4.4H214.8c0-0.6 0.4-1.1 0.4-1.7v-22.8c0-13.5-11.4-24.5-25.3-24.5s-25.3 11-25.3 24.5v22.8c0 1.4 0.6 2.7 0.9 4.1-55.8 10.7-98.2 58.7-98.2 115.8v407.8c0 65 54.8 118.1 121.7 118.1h649.3c67 0 121.7-53.2 121.7-118.1V365.7c0.1-65-54.7-118.1-121.7-118.1zM667.9 751.7c-99.6 0-180.4-78.4-180.4-175 0-96.7 80.8-175 180.4-175 99.6 0 180.4 78.4 180.4 175-0.1 96.6-80.8 175-180.4 175z" fill="#FC865E" p-id="2229"></path><path d="M667.9 467.7c-62 0-112.3 48.8-112.3 109s50.3 109 112.3 109 112.3-48.8 112.3-109-50.3-109-112.3-109z" fill="#FC865E" p-id="2230"></path></svg>