<svg t="1660830612162" class="icon" viewBox="0 0 1024 1024" version="1.1" xmlns="http://www.w3.org/2000/svg" p-id="4634" width="16" height="16"><path d="M335 687.4l-44 230h444l-40-226s-192 114-360-4zM455 105.4h114l61 260H394z" fill="#FEB100" p-id="4635"></path><path d="M98.1 368.5l831 3S855.6 811 413.1 715c0 0-309-103.5-315-346.5z" fill="#FFFFFF" p-id="4636"></path><path d="M755.3 916.1l-43.7-222.2-7.2-36.7c-11 5.7-22.2 10.9-33.6 15.7l7.1 36 38.3 195.1H309.9l38.8-195 7.2-35.9c-11.5-4.7-22.7-9.9-33.6-15.6l-7.3 36.6-44.2 221.9c-2.5 12.4 7 23.9 19.6 23.9h445.3c12.6 0.1 22-11.4 19.6-23.8zM420.8 347l44.8-225h96.9l44.3 225 7.1 36h36.7l-7.1-36-48.2-244.9c-1.8-9.4-10.1-16.1-19.6-16.1H452.4c-9.5 0-17.8 6.7-19.6 16.1L384 347l-7.2 36h36.7l7.3-36z" fill="#0C0C0C" p-id="4637"></path><path d="M936.2 347h-846.4c-12.5 0-21.9 11.3-19.7 23.5 25.8 142.5 118.7 261.8 244.8 323.7 11 5.4 22.3 10.4 33.7 14.9 50.9 20 106.3 31 164.3 31 58.2 0 113.8-11 164.8-31.2 11.5-4.5 22.8-9.5 33.8-14.9 125.8-62 218.5-181 244.3-323.4 2.3-12.3-7.2-23.6-19.6-23.6z m-156.3 259.5c-23.4 19.7-48.7 36.7-75.5 50.7-11 5.7-22.2 10.9-33.6 15.7-4.4 1.8-8.8 3.5-13.2 5.2-46.2 17.2-94.8 25.9-144.6 25.9s-98.4-8.7-144.5-25.9c-4.2-1.6-8.5-3.2-12.6-4.9-11.5-4.7-22.7-9.9-33.6-15.6-27.1-14.1-52.5-31.1-76.1-51-68.7-58-116.7-136.8-136.7-223.5h807.1c-20 86.7-68.1 165.5-136.7 223.4z" fill="#0C0C0C" p-id="4638"></path><path d="M202.2 357c2.1 2.7 4.4 5.6 6.5 8.6l-24.3 17.4h-7.6c-1-1.2-1.9-2.5-3-3.8-6.4-8.2-14.8-18.9-17.5-32.2-3.1-15.3 1.5-34 25.5-56.1 17.1-15.7 5.7-44.8-3.3-61.8-4.2-8-2-17.8 5.3-23.1 3.2-2.3 6.9-3.4 10.5-3.4 6.4 0 12.7 3.4 15.9 9.6 3.5 6.7 7.3 14.8 10.4 23.7 11.4 33.5 6.3 62.4-14.4 81.5-9.9 9.1-15.1 16.9-14.7 21.9 0.2 2.3 1.4 4.9 3.2 7.7 2.1 3.1 4.8 6.5 7.5 10zM292.2 357c2.1 2.7 4.4 5.6 6.5 8.6l-24.3 17.4h-7.6c-1-1.2-1.9-2.5-3-3.8-6.4-8.2-14.8-18.9-17.5-32.2-3.1-15.3 1.5-34 25.5-56.1 17.1-15.7 5.7-44.8-3.3-61.8-4.2-8-2-17.8 5.3-23.1 3.2-2.3 6.9-3.4 10.5-3.4 6.4 0 12.7 3.4 15.9 9.6 3.5 6.7 7.3 14.8 10.4 23.7 11.4 33.5 6.3 62.4-14.4 81.5-9.9 9.1-15.1 16.9-14.7 21.9 0.2 2.3 1.4 4.9 3.2 7.7 2.1 3.1 4.8 6.5 7.5 10z" fill="#0C0C0C" p-id="4639"></path><path d="M512.5 168.7c-0.9 0-1.9 0-2.8-0.1-41.3-1.8-67.3-44.2-68.4-46l15.4-9.3L472 104c4.7 7.7 21 27.9 39.3 28.7 16.8 0.7 32.6-15.9 42.8-29.9l29.1 21.2c-21.7 29.6-45.5 44.7-70.7 44.7z" fill="#0C0C0C" p-id="4640"></path><path d="M293.1 450.5h439.5v120H293.1z" fill="#73D37A" p-id="4641"></path><path d="M736 431H290c-11 0-20 9-20 20v124c0 11 9 20 20 20h446c11 0 20-9 20-20v-124c0-11-9-20-20-20z m-16 128H306v-92h414v92z" fill="#0C0C0C" p-id="4642"></path></svg>