<svg t="1660831826985" class="icon" viewBox="0 0 1061 1024" version="1.1" xmlns="http://www.w3.org/2000/svg" p-id="2065" width="16" height="16"><path d="M1038.989436 337.823661c0 172.955034-106.974205 313.048611-238.935862 313.048611H561.117712V337.823661c0-172.955034 106.974205-313.048611 238.935862-313.048611s238.935862 140.154263 238.935862 313.048611z" fill="#FFFFFF" p-id="2066"></path><path d="M800.053574 24.790221H269.324365C137.362708 24.790221 30.342988 164.929313 30.342988 337.823661v559.706763a98.523683 98.523683 0 0 0 98.614713 98.523684h333.636328a98.523683 98.523683 0 0 0 98.523683-98.523684V650.887444" fill="#FFFFFF" p-id="2067"></path><path d="M798.126795 22.787584a185.638403 185.638403 0 0 0-32.497341 3.201186C864.48691 71.624624 935.443988 194.726128 935.443988 339.871813c0 144.887769-70.744677 267.822387-169.329046 313.655471h32.011853c132.932632 0 240.695755-141.201096 240.695755-315.36985S931.074598 22.787584 798.126795 22.787584z" fill="#65A347" p-id="2068"></path><path d="M955.303474 325.686466c0-139.259145-65.237425-258.41606-157.904911-308.16339-92.546115 49.747329-157.88974 168.904245-157.88974 308.16339V658.77662h61.550752c140.412179 0 254.2439-149.135788 254.243899-333.090154z" fill="#9BD37A" p-id="2069"></path><path d="M564.531299 653.512112v248.493903c0 54.814608-34.894437 99.251915-77.905623 99.251915H222.732706c-43.026358 0-77.905623-44.437306-77.905623-99.251915V338.142262C144.827083 163.973509 229.423335 22.787584 333.772872 22.787584h419.704215c-104.364708 0-188.945789 141.185925-188.945788 315.354678z" fill="#FFAC1F" p-id="2070"></path><path d="M445.177154 653.512112v248.493903c0 54.814608-58.774368 99.251915-91.529625 99.251915H165.763745c-32.740084 0-59.290199-44.437306-59.290199-99.251915V338.142262C106.473546 163.973509 170.846196 22.787584 250.238625 22.787584h370.943033c-79.407601 0-175.989333 141.201096-175.989333 315.36985z" fill="#FECD57" p-id="2071"></path><path d="M798.126795 676.254182H534.68897V338.142262C534.68897 151.745285 652.874909 0.030343 798.126795 0.030343 907.847041 0.030343 1004.352915 84.656938 1043.7988 215.617275a22.757241 22.757241 0 1 1-43.527017 13.153686C966.651752 117.442536 887.320009 45.544826 798.126795 45.544826c-120.173405 0-217.953685 131.278939-217.953686 292.627779v292.597437h217.953686c116.517075 0 212.127832-122.312586 217.726113-278.442433a22.757241 22.757241 0 1 1 45.514482 1.62335c-6.523742 180.722839-122.115357 322.303222-263.240595 322.303223zM458.179124 1024H121.993985A122.130528 122.130528 0 0 1 0 902.006015V338.142262C0 151.745285 118.18594 0.030343 263.452997 0.030343h70.213675a22.757241 22.757241 0 1 1 0 45.514483h-70.213675C143.279591 45.544826 45.514483 176.793422 45.514483 338.142262v563.863753A76.600874 76.600874 0 0 0 121.993985 978.591718H458.179124a76.600874 76.600874 0 0 0 76.509846-76.509845 22.757241 22.757241 0 1 1 45.514482 0A122.130528 122.130528 0 0 1 458.179124 1024z" fill="#231815" p-id="2072"></path><path d="M557.431039 796.533788a22.757241 22.757241 0 0 1-22.757241-22.757242V338.142262c0-124.815883 52.963686-234.050641 131.567198-292.627779H467.282021a22.757241 22.757241 0 0 1 0-45.514483h330.738573V45.544826c-120.173405 0-217.953685 131.278939-217.953685 292.627779V773.776546a22.757241 22.757241 0 0 1-22.63587 22.757242z" fill="#231815" p-id="2073"></path><path d="M790.434847 492.345329c-26.534943 0-50.414875-16.901045-67.224891-47.577805-14.412919-26.368057-22.362782-60.898378-22.362782-97.309964 0-82.593614 38.535595-144.872598 89.618016-144.872598s89.618016 62.278984 89.618016 144.872598-38.535595 144.887769-89.648359 144.887769z m0-244.261056c-17.993392 0-44.133877 38.717653-44.133877 99.388458 0 28.461723 6.068598 55.952471 16.794845 75.432669 8.22295 15.004608 18.433365 23.955789 27.308689 23.95579 17.993392 0 44.133877-38.717653 44.133877-99.388459S808.443411 248.084273 790.434847 248.084273z" fill="#231815" p-id="2074"></path></svg>