<svg t="1661700506443" class="icon" viewBox="0 0 1024 1024" version="1.1" xmlns="http://www.w3.org/2000/svg" p-id="2469" width="16" height="16">
    <path d="M908.88492373 762.93952853H528.0956416c-22.04412587 0-40.02174293 19.87925333-40.02174293 44.253184 0 24.36846933 17.9765248 44.24881493 40.02174293 44.24881494h380.78928213c22.0397568 0 40.02174293-19.87925333 40.02174294-44.24881494 0-24.3728384-17.98198613-44.253184-40.02174294-44.253184z m0-319.40826453H655.0224896c-22.0397568 0-40.0162816 19.70449067-40.0162816 44.24881493 0 24.36846933 17.9765248 44.2433536 40.0162816 44.2433536H908.886016c22.0397568 0 40.02174293-19.87488427 40.02174293-44.2433536-0.00109227-24.54432427-17.9830784-44.24881493-40.0228352-44.24881493zM515.588096 222.2882816h393.29682773c22.0397568 0 40.02174293-19.70449067 40.02174294-44.2433536 0-24.54869333-17.98198613-44.253184-40.02174294-44.253184H515.588096c-22.04412587 0-40.02174293 19.70449067-40.02174293 44.253184 0.00109227 24.53886293 17.97761707 44.2433536 40.02174293 44.2433536z m27.820032 211.22034347c15.78871467-17.29276587 15.78871467-45.46669227 0.31566507-62.92002134L344.41352533 147.96827307c-7.8086144-8.81349973-18.2878208-13.31254613-28.606464-13.31254614-10.16354133 0-20.48109227 4.32428373-28.295168 12.78825814l-0.1605632 0.17476266s-0.15510187 0-0.15510186 0.17476267l-200.39816534 220.7186944c-15.63252053 17.4620672-15.63252053 45.63708587 0.15510187 63.094784h0.00436907c15.62815147 17.45332907 41.7398784 17.45332907 57.5275008 0.1703936l130.68315306-143.80673707v529.42056107c0 24.543232 17.81705387 44.41811627 40.0162816 44.41811627 22.18939733 0 40.0162816-19.87488427 40.01191254-44.41811627V285.54799787L486.8210688 433.160192c15.62924373 17.4522368 40.95890773 17.62699947 56.5870592 0.34843307z" fill="#006569" p-id="2470"></path>
</svg>