<svg t="1660833812252" class="icon" viewBox="0 0 1024 1024" version="1.1" xmlns="http://www.w3.org/2000/svg" p-id="10932" width="16" height="16"><path d="M131.255167 466.130909l766.242591 0 0 535.731278-766.242591 0 0-535.731278Z" fill="#9FDBAD" p-id="10933"></path><path d="M873.446254 487.415426a2.341297 2.341297 0 0 1 2.341297 2.341297V979.087755a2.341297 2.341297 0 0 1-2.341297 2.341297H154.88098a2.341297 2.341297 0 0 1-2.341296-2.341297V489.543877a2.341297 2.341297 0 0 1 2.341296-2.341296H873.446254m0-42.569033H154.88098A44.91033 44.91033 0 0 0 109.970651 489.543877v489.543878a44.91033 44.91033 0 0 0 44.910329 44.910329H873.446254A44.91033 44.91033 0 0 0 918.782274 979.087755V489.543877A44.91033 44.91033 0 0 0 873.446254 444.846393z" fill="#5C2D51" p-id="10934"></path><path d="M64.634631 289.895113l893.949689 0 0 188.155126-893.949689 0 0-188.155126Z" fill="#FDCA89" p-id="10935"></path><path d="M937.299804 311.17963v145.586092H85.919147v-145.586092h851.380657m5.533974-42.569033H80.385173A37.035059 37.035059 0 0 0 43.350114 305.645656v156.441195a37.035059 37.035059 0 0 0 37.035059 37.035059h862.448605A37.035059 37.035059 0 0 0 979.868836 462.299696v-156.65404a37.035059 37.035059 0 0 0-37.035058-37.035059z" fill="#5C2D51" p-id="10936"></path><path d="M584.189676 283.509759a166.657763 166.657763 0 0 1-98.12162-25.96711C532.893992 177.938557 648.681761 21.284516 749.996059 21.284516a106.422582 106.422582 0 0 1 75.560033 33.629536c24.264349 23.200123 49.167233 60.022336 31.28824 104.719821-24.690039 61.512252-126.217182 123.875885-272.44181 123.875886z" fill="#F05071" p-id="10937"></path><path d="M749.996059 42.569033a86.627982 86.627982 0 0 1 60.660872 27.669871c42.569033 40.866272 30.436858 71.30313 26.3928 81.306853-21.284516 53.424136-117.277685 110.46664-252.860055 110.46664a153.248518 153.248518 0 0 1-68.110452-12.557865C565.884992 171.766047 666.135065 42.569033 749.996059 42.569033m0-42.569033c-146.224628 0-292.874946 264.779384-292.874946 264.779384a201.990061 201.990061 0 0 0 127.707099 40.014891c222.210351 0 380.992844-145.586092 255.414197-265.205074A127.707098 127.707098 0 0 0 749.996059 0z" fill="#5C2D51" p-id="10938"></path><path d="M490.324959 268.610597h42.569033v754.536107h-42.569033z" fill="#5C2D51" p-id="10939"></path><path d="M511.609475 276.698713C262.367788 274.783107 163.820477 193.901944 155.519516 124.514421 149.772696 80.029782 182.763697 40.227736 234.910762 27.669871a175.384415 175.384415 0 0 1 41.079117-5.108284c138.136511 0 212.845164 184.749602 235.619596 254.137126z" fill="#F05071" p-id="10940"></path><path d="M275.777034 44.058949c109.402414 0 176.448641 133.879608 206.034118 211.355248C253.853982 246.687545 182.338007 168.99906 176.804032 121.960279c-4.044058-33.416691 21.284516-63.853549 63.85355-73.431582a154.312744 154.312744 0 0 1 36.183677-4.469748m0-42.569033a195.817551 195.817551 0 0 0-47.251626 5.533974C71.871366 45.123175 69.95576 297.98323 524.805876 297.98323h16.176232S464.357849 1.489916 275.777034 1.489916z" fill="#5C2D51" p-id="10941"></path></svg>