<svg t="1663506434938" class="icon" viewBox="0 0 1749 1024" version="1.1" xmlns="http://www.w3.org/2000/svg" p-id="2324" width="16" height="16">
    <path d="M1066.733181 345.42655c7.858976 6.017028 15.595155 12.156853 22.962946 18.665068 64.099772 56.240796 103.517448 133.111404 111.008034 216.735819 4.666267 51.697326-3.683895 104.131431-23.945317 151.530879-30.821921 72.081545-70.48519 141.952752-108.797698 209.613623-9.700923 17.068713-19.27905 34.01463-28.73438 50.960547-10.683295 19.156254-31.313107 31.067514-53.66207 31.067514h-88.659072c-33.646241 0-61.02986-26.64684-61.02986-59.433505v-7.244994c0-1.350761-1.227965-2.45593-2.578726-2.333133-34.38302 4.052284-69.625615 4.666267-103.640245 2.08754-0.982372-0.122796-1.841947 0.491186-2.210337 1.350762l-13.876004 30.330735c-9.946516 21.489387-31.804293 35.242595-55.74961 35.242595h-89.027461c-33.646241 0-61.02986-26.64684-61.02986-59.433505v-76.625015c0-0.736779-0.368389-1.473558-1.105169-1.964744-67.783667-42.119199-119.358196-100.201943-147.110205-165.652476-0.245593-0.491186-0.613982-0.859575-1.105168-1.105169L304.780909 692.449454c-18.910661-9.45533-30.576328-28.120398-30.576328-48.750209v-104.86821c0-30.207939 25.050486-54.644442 55.995203-54.644442l30.085142 0.122797c0.859575 0 1.719151-0.491186 2.087541-1.350762 18.173882-40.277251 45.434704-77.975776 80.186113-110.394052 0.736779-0.736779 0.982372-1.841947 0.491186-2.701523l-30.085142-58.819523c-8.104569-15.963545-7.736179-34.874206 0.859576-50.46936 8.964144-16.086341 25.296079-26.769637 43.961146-28.365992 14.73558-1.350761 29.593956-2.08754 44.452332-2.08754 59.187912 0 111.130831 10.928888 154.355199 32.663869 0.491186 0.245593 0.982372 0.245593 1.473558 0.245593 16.700324-3.561098 33.646241-6.262621 50.960547-8.104569 1.350761-0.122796 2.45593 0.859575 2.578726 2.08754l2.82432 38.066915c0.491186 6.753807-4.420674 12.770836-11.174482 13.630411-14.858376 1.964744-29.348363 4.666267-43.715553 7.981772l-9.086941 2.087541c-0.613982 0.122796-1.105168 0-1.596355-0.245593l-8.104568-4.543471c-46.417076-25.787265-100.938722-31.190311-138.637247-31.19031-13.139225 0-26.401247 0.613982-39.540473 1.841947-1.596354 0.122796-2.45593 1.964744-1.719151 3.315506l47.890635 94.798896c0.491186 0.982372 0.245593 2.08754-0.613983 2.82432l-14.73558 12.27965c-41.505216 34.505816-72.449934 76.747811-89.39585 122.059719l-5.894232 15.717952c-0.368389 0.859575-1.227965 1.473558-2.210337 1.473558l-65.696127-0.245593c-2.210337 0-3.438302 1.350761-3.438302 1.964744v104.86821c0 0.491186 0.613982 1.227965 1.473558 1.596354l71.835952 35.733781c0.491186 0.245593 0.982372 0.736779 1.105168 1.227965l3.315506 8.841348c23.945317 62.871807 74.537475 118.989807 142.566734 157.670704l12.156854 6.876604c0.736779 0.368389 1.105168 1.227965 1.105168 1.964744v106.832953c0 3.683895 3.806691 6.753807 8.350162 6.753808h89.027461c3.438302 0 6.631011-1.841947 7.858976-4.543471l29.47116-64.713754c0.368389-0.859575 1.350761-1.473558 2.333133-1.350762l17.437103 2.087541c46.171483 5.525842 95.904065 3.929488 142.443938-4.543471l28.365991-5.157453c1.473558-0.245593 2.701523 0.859575 2.701523 2.210337v69.380022c0 3.683895 3.806691 6.753807 8.350162 6.753807h88.659072c3.315505 0 6.262621-1.596354 7.613383-4.052284 9.45533-17.068713 19.156254-34.137427 28.857177-51.20614 37.575729-66.310109 76.502218-134.830555 106.096175-204.210577 17.19151-39.540472 24.19091-83.256026 20.261422-126.2348-6.262621-69.994004-39.417676-134.584962-93.325339-181.861614-5.525842-4.789063-11.174481-9.578127-17.068713-13.998801l28.979973-44.329536z" fill="#2A9B74" p-id="2325"></path>
    <path d="M501.500899 557.373306c0 25.296079 20.507015 45.803094 45.803094 45.803094 25.296079 0 45.803094-20.507015 45.803094-45.803094 0-25.296079-20.507015-45.803094-45.803094-45.803094-25.296079 0-45.803094 20.507015-45.803094 45.803094M1172.70656 702.641564c11.051685 7.36779 22.594556 12.648039 34.505816 15.717952 7.122197 1.841947 14.36719 2.824319 21.612183 3.192708 39.417676 1.596354 69.625615-19.893033 83.992805-32.786665 26.401247 14.489987 54.398849 20.015829 81.536875 16.086342 15.472359-2.210337 26.032858-16.577527 23.822521-32.049886-2.210337-15.472359-16.577527-26.155654-32.049886-23.822521-11.542871 1.719151-23.085742 0-33.891834-3.929488 7.736179-10.069313 14.73558-20.752608 20.507015-32.049886 15.717952-30.821921 19.033457-62.257825 10.069313-93.325339-9.209737-31.92709-36.102171-56.731982-66.801295-61.643842-29.716753-4.789063-58.328337 9.086941-78.344166 38.189711-23.085742 33.523444-19.64744 82.887636 8.841348 128.69073 6.139825 9.946516 13.262022 19.27905 21.120998 27.874805-8.841348 6.262621-21.857777 13.016429-36.593357 12.402447-16.82312-0.613982-33.646241-11.051685-50.223768-31.067514m125.743615-22.47176c-4.54347-5.280249-8.595755-10.806092-12.27965-16.700323-15.963545-25.664468-20.138626-52.556901-10.192109-66.924092 7.490586-10.806092 15.226766-15.717952 22.840148-14.489987 0.491186 0.122796 1.105168 0.245593 1.596355 0.36839 8.718551 2.210337 17.068713 11.051685 20.138625 21.36659 7.613383 26.278451-1.350761 49.732582-22.103369 76.379422z m0 0" fill="#2A9B74" p-id="2326"></path>
    <path d="M969.723948 459.3817l-67.046888 7.981773c-9.209737 1.105168-18.665068 1.105168-27.874806 0l-67.046888-7.981773c-12.156853 0-22.10337-9.946516-22.103369-22.103369s9.946516-22.10337 22.103369-22.10337l66.801295 6.876604c9.45533 0.982372 18.910661 0.982372 28.365992 0l66.801295-6.876604c12.156853 0 22.10337 9.946516 22.103369 22.10337s-9.946516 22.10337-22.103369 22.103369z" fill="#2A9B74" p-id="2327"></path>
    <path d="M829.858736 309.078786c-60.907063 0-110.394052-49.486989-110.394052-110.394052S768.951673 88.290682 829.858736 88.290682c12.27965 0 22.226166 9.946516 22.226166 22.226167s-9.946516 22.226166-22.226166 22.226166C793.510973 132.743015 763.79422 162.336971 763.79422 198.807531s29.593956 66.064516 66.064516 66.064516c12.27965 0 22.226166 9.946516 22.226166 22.226166 0 12.034057-9.946516 21.980573-22.226166 21.980573z" fill="#2A9B74" p-id="2328"></path>
    <path d="M1006.317304 132.620218c-12.27965 0-22.226166-9.946516-22.226166-22.226166 0-36.347764-29.593956-66.064516-66.064516-66.064516S852.084902 74.046289 852.084902 110.394052c0 12.27965-9.946516 22.226166-22.226166 22.226166-12.27965 0-22.226166-9.946516-22.226166-22.226166 0-60.907063 49.486989-110.394052 110.394052-110.394052s110.394052 49.486989 110.394052 110.394052c0.122796 12.27965-9.82372 22.226166-22.10337 22.226166zM918.149418 397.246672c-60.907063 0-110.394052-49.486989-110.394052-110.394052 0-12.27965 9.946516-22.226166 22.226167-22.226166 12.27965 0 22.226166 9.946516 22.226166 22.226166 0 36.347764 29.593956 66.064516 66.064516 66.064516s66.064516-29.593956 66.064516-66.064516c0-12.27965 9.946516-22.226166 22.226166-22.226166s22.226166 9.946516 22.226166 22.226166c-0.245593 60.907063-49.855378 110.394052-110.639645 110.394052z" fill="#2A9B74" p-id="2329"></path>
    <path d="M1006.317304 309.078786c-12.27965 0-22.226166-9.946516-22.226166-22.226166 0-12.27965 9.946516-22.226166 22.226166-22.226166 36.347764 0 66.064516-29.593956 66.064516-66.064516S1042.787864 132.497422 1006.317304 132.497422c-12.27965 0-22.226166-9.946516-22.226166-22.226166S994.037654 88.290682 1006.317304 88.290682c60.907063 0 110.394052 49.486989 110.394052 110.394052s-49.486989 110.394052-110.394052 110.394052zM918.149418 262.416117c-35.242595 0-63.854179-28.611584-63.854179-63.854179s28.611584-63.854179 63.854179-63.854179 63.854179 28.611584 63.85418 63.854179-28.734381 63.854179-63.85418 63.854179z m0-92.465763c-15.840748 0-28.734381 12.893632-28.73438 28.73438s12.893632 28.734381 28.73438 28.734381 28.734381-12.893632 28.734381-28.734381-12.893632-28.734381-28.734381-28.73438z" fill="#2A9B74" p-id="2330"></path>
    <path d="M705.834273 281.326778m-26.401247 0a26.401247 26.401247 0 1 0 52.802494 0 26.401247 26.401247 0 1 0-52.802494 0Z" fill="#2A9B74" p-id="2331"></path>
    <path d="M1050.524044 366.424751m-26.401248 0a26.401247 26.401247 0 1 0 52.802495 0 26.401247 26.401247 0 1 0-52.802495 0Z" fill="#2A9B74" p-id="2332"></path>
</svg>